<svg width="600" height="97" viewBox="0 0 600 97" fill="none" xmlns="http://www.w3.org/2000/svg">
<path d="M24.32 3.39999H64.64L88.32 93H68.48L63.36 73.16H25.6L20.48 93H0.64L24.32 3.39999ZM58.88 55.24L49.92 21.32H39.04L30.08 55.24H58.88ZM89 3.39999H107.56L141.48 93H122.92L89 3.39999ZM173.5 96.84C170.172 96.84 167.185 96.4987 164.54 95.816C161.895 95.1333 159.505 94.1947 157.372 93C155.239 91.8907 153.361 90.6107 151.74 89.16C150.204 87.7093 148.839 86.216 147.644 84.68C144.828 81.1813 142.78 77.128 141.5 72.52L160.06 68.68C160.657 70.5573 161.553 72.264 162.748 73.8C163.772 75.08 165.137 76.2747 166.844 77.384C168.551 78.408 170.769 78.92 173.5 78.92C178.023 78.92 181.607 77.5547 184.252 74.824C186.897 72.008 188.22 68.04 188.22 62.92V3.39999H207.42V62.92C207.42 68.2107 206.652 72.9467 205.116 77.128C203.58 81.3093 201.319 84.8933 198.332 87.88C195.431 90.7813 191.889 93 187.708 94.536C183.527 96.072 178.791 96.84 173.5 96.84ZM239.445 3.39999H279.765L303.445 93H283.605L278.485 73.16H240.725L235.605 93H215.765L239.445 3.39999ZM274.005 55.24L265.045 21.32H254.165L245.205 55.24H274.005ZM312.445 3.39999H354.685C360.146 3.39999 365.053 4.21066 369.405 5.83199C373.757 7.36799 377.426 9.50133 380.413 12.232C383.485 14.9627 385.832 18.1627 387.453 21.832C389.074 25.416 389.885 29.2987 389.885 33.48C389.885 36.9787 389.33 40.1787 388.221 43.08C387.197 45.9813 385.746 48.584 383.869 50.888C382.077 53.1067 379.944 55.0693 377.469 56.776C374.994 58.4827 372.306 59.8907 369.405 61L389.885 93H368.125L349.565 63.56H331.645V93H312.445V3.39999ZM354.045 45.64C359.506 45.64 363.517 44.5307 366.077 42.312C368.722 40.008 370.045 37.064 370.045 33.48C370.045 29.896 368.722 26.9947 366.077 24.776C363.517 22.472 359.506 21.32 354.045 21.32H331.645V45.64H354.045ZM395.655 3.39999H415.495L433.415 75.08H444.295L462.215 3.39999H482.055L459.015 93H418.695L395.655 3.39999ZM491.695 3.39999H510.895V93H491.695V3.39999ZM562.77 95.56C558.333 95.56 554.365 95.0907 550.866 94.152C547.367 93.2987 544.253 92.1893 541.522 90.824C538.791 89.3733 536.402 87.752 534.354 85.96C532.391 84.0827 530.727 82.1627 529.362 80.2C526.034 75.6773 523.73 70.5573 522.45 64.84H542.29C543.058 67.4 544.295 69.6613 546.002 71.624C547.453 73.3307 549.501 74.8667 552.146 76.232C554.877 77.5973 558.418 78.28 562.77 78.28C568.829 78.28 573.095 77.2987 575.57 75.336C578.13 73.3733 579.41 70.9413 579.41 68.04C579.41 65.3093 578.087 63.176 575.442 61.64C572.882 60.104 569.597 58.7813 565.586 57.672C561.661 56.4773 557.394 55.3253 552.786 54.216C548.263 53.0213 543.997 51.4427 539.986 49.48C536.061 47.432 532.775 44.7867 530.13 41.544C527.57 38.216 526.29 33.8213 526.29 28.36C526.29 24.6907 527.058 21.192 528.594 17.864C530.215 14.536 532.477 11.6347 535.378 9.16C538.365 6.59999 541.991 4.59466 546.258 3.144C550.525 1.608 555.389 0.839996 560.85 0.839996C565.031 0.839996 568.743 1.26666 571.986 2.12C575.229 2.888 578.087 3.91199 580.562 5.19199C583.122 6.472 585.298 7.96533 587.09 9.672C588.967 11.2933 590.546 12.9573 591.826 14.664C594.813 18.76 596.861 23.3253 597.97 28.36H578.13C577.618 26.4827 576.637 24.776 575.186 23.24C573.991 21.96 572.242 20.808 569.938 19.784C567.719 18.6747 564.69 18.12 560.85 18.12C555.73 18.12 551.975 19.1013 549.586 21.064C547.282 22.9413 546.13 25.16 546.13 27.72C546.13 29.768 546.898 31.4747 548.434 32.84C549.97 34.2053 551.975 35.4 554.45 36.424C556.925 37.3627 559.741 38.216 562.898 38.984C566.141 39.752 569.383 40.6053 572.626 41.544C575.954 42.4827 579.197 43.592 582.354 44.872C585.597 46.152 588.455 47.7733 590.93 49.736C593.405 51.6987 595.41 54.1307 596.946 57.032C598.482 59.848 599.25 63.304 599.25 67.4C599.25 71.1547 598.482 74.7387 596.946 78.152C595.41 81.5653 593.106 84.552 590.034 87.112C586.962 89.672 583.122 91.72 578.514 93.256C573.991 94.792 568.743 95.56 562.77 95.56Z" fill="#111111"/>
</svg>
